<mxfile host="app.diagrams.net" agent="Mozilla/5.0 (Windows NT 10.0; Win64; x64) AppleWebKit/537.36 (KHTML, like Gecko) Chrome/131.0.0.0 Safari/537.36 Edg/131.0.0.0" version="26.0.2">
  <diagram name="导出txt文本" id="JnTPTSW8uvq64Gtc28mE">
    <mxGraphModel dx="1688" dy="2124" grid="1" gridSize="10" guides="1" tooltips="1" connect="1" arrows="1" fold="1" page="1" pageScale="1" pageWidth="827" pageHeight="1169" math="0" shadow="0">
      <root>
        <mxCell id="0" />
        <mxCell id="1" parent="0" />
        <mxCell id="ml-K04kPEU6mxTsvXC_G-3" style="edgeStyle=orthogonalEdgeStyle;rounded=0;orthogonalLoop=1;jettySize=auto;html=1;entryX=0.5;entryY=0;entryDx=0;entryDy=0;" parent="1" source="ml-K04kPEU6mxTsvXC_G-1" target="ml-K04kPEU6mxTsvXC_G-2" edge="1">
          <mxGeometry relative="1" as="geometry" />
        </mxCell>
        <mxCell id="ml-K04kPEU6mxTsvXC_G-1" value="&lt;div style=&quot;background-color:#1e1f22;color:#bcbec4&quot;&gt;&lt;pre style=&quot;font-family:&#39;JetBrains Mono&#39;,monospace;font-size:9.8pt;&quot;&gt;&lt;span style=&quot;color:#56a8f5;&quot;&gt;main&lt;/span&gt;&lt;/pre&gt;&lt;/div&gt;" style="rounded=1;whiteSpace=wrap;html=1;" parent="1" vertex="1">
          <mxGeometry x="55" y="180" width="120" height="60" as="geometry" />
        </mxCell>
        <mxCell id="eJx14qyZ2uoMX4utbZYr-3" style="edgeStyle=orthogonalEdgeStyle;rounded=0;orthogonalLoop=1;jettySize=auto;html=1;" parent="1" source="ml-K04kPEU6mxTsvXC_G-2" target="eJx14qyZ2uoMX4utbZYr-2" edge="1">
          <mxGeometry relative="1" as="geometry" />
        </mxCell>
        <mxCell id="ml-K04kPEU6mxTsvXC_G-2" value="&lt;div style=&quot;background-color:#1e1f22;color:#bcbec4&quot;&gt;&lt;pre style=&quot;font-family:&#39;JetBrains Mono&#39;,monospace;font-size:9.8pt;&quot;&gt;&lt;span style=&quot;color:#56a8f5;&quot;&gt;_table_RelatedTable&lt;/span&gt;&lt;/pre&gt;&lt;/div&gt;" style="rounded=1;whiteSpace=wrap;html=1;" parent="1" vertex="1">
          <mxGeometry x="35" y="330" width="160" height="60" as="geometry" />
        </mxCell>
        <mxCell id="HzeIFlUvHCIBDFWtZQH6-4" style="edgeStyle=orthogonalEdgeStyle;rounded=0;orthogonalLoop=1;jettySize=auto;html=1;fontColor=#000000;labelBackgroundColor=none;fontFamily=Helvetica;" edge="1" parent="1" source="ml-K04kPEU6mxTsvXC_G-5" target="HzeIFlUvHCIBDFWtZQH6-3">
          <mxGeometry relative="1" as="geometry" />
        </mxCell>
        <mxCell id="HzeIFlUvHCIBDFWtZQH6-10" style="edgeStyle=orthogonalEdgeStyle;rounded=0;orthogonalLoop=1;jettySize=auto;html=1;entryX=0;entryY=0.5;entryDx=0;entryDy=0;fontColor=#000000;labelBackgroundColor=none;fontFamily=Helvetica;" edge="1" parent="1" source="ml-K04kPEU6mxTsvXC_G-5" target="HzeIFlUvHCIBDFWtZQH6-6">
          <mxGeometry relative="1" as="geometry" />
        </mxCell>
        <mxCell id="HzeIFlUvHCIBDFWtZQH6-11" style="edgeStyle=orthogonalEdgeStyle;rounded=0;orthogonalLoop=1;jettySize=auto;html=1;entryX=0;entryY=0.5;entryDx=0;entryDy=0;fontColor=#000000;labelBackgroundColor=none;fontFamily=Helvetica;" edge="1" parent="1" source="ml-K04kPEU6mxTsvXC_G-5" target="ml-K04kPEU6mxTsvXC_G-8">
          <mxGeometry relative="1" as="geometry" />
        </mxCell>
        <mxCell id="HzeIFlUvHCIBDFWtZQH6-14" style="edgeStyle=orthogonalEdgeStyle;rounded=0;orthogonalLoop=1;jettySize=auto;html=1;entryX=0;entryY=0.5;entryDx=0;entryDy=0;fontColor=#000000;labelBackgroundColor=none;fontFamily=Helvetica;" edge="1" parent="1" source="ml-K04kPEU6mxTsvXC_G-5" target="HzeIFlUvHCIBDFWtZQH6-13">
          <mxGeometry relative="1" as="geometry" />
        </mxCell>
        <mxCell id="ml-K04kPEU6mxTsvXC_G-5" value="&lt;div style=&quot;&quot;&gt;&lt;div style=&quot;font-size: 9.8pt;&quot;&gt;&lt;span style=&quot;&quot;&gt;_table_RelatedTable&lt;/span&gt;&lt;/div&gt;&lt;/div&gt;" style="rounded=1;whiteSpace=wrap;html=1;fontColor=#000000;labelBackgroundColor=none;fontFamily=Helvetica;" parent="1" vertex="1">
          <mxGeometry x="1008.5" y="-540" width="160" height="60" as="geometry" />
        </mxCell>
        <mxCell id="ml-K04kPEU6mxTsvXC_G-8" value="&lt;div style=&quot;&quot;&gt;&lt;div style=&quot;font-size: 9.8pt;&quot;&gt;&lt;span style=&quot;font-size: 9.8pt; white-space: normal;&quot;&gt;conv2tableLuaIndex.&lt;/span&gt;get_res_convert_map_by_excelList(Info)&lt;/div&gt;&lt;/div&gt;" style="rounded=1;whiteSpace=wrap;html=1;fontColor=#000000;labelBackgroundColor=none;fontFamily=Helvetica;" parent="1" vertex="1">
          <mxGeometry x="1241" y="-370" width="410" height="60" as="geometry" />
        </mxCell>
        <mxCell id="f6NRc0c9WLY2QuTVg-Pm-4" value="获取已有记载的依赖关系" style="text;html=1;align=center;verticalAlign=middle;resizable=0;points=[];autosize=1;strokeColor=none;fillColor=none;fontColor=#000000;labelBackgroundColor=none;fontFamily=Helvetica;" parent="1" vertex="1">
          <mxGeometry x="1232" y="-640" width="160" height="30" as="geometry" />
        </mxCell>
        <mxCell id="_njpeNoxGZ5RL7biQajy-2" style="edgeStyle=orthogonalEdgeStyle;rounded=0;orthogonalLoop=1;jettySize=auto;html=1;entryX=0.5;entryY=0;entryDx=0;entryDy=0;" parent="1" source="eJx14qyZ2uoMX4utbZYr-2" target="_njpeNoxGZ5RL7biQajy-1" edge="1">
          <mxGeometry relative="1" as="geometry" />
        </mxCell>
        <mxCell id="eJx14qyZ2uoMX4utbZYr-2" value="&lt;div style=&quot;background-color:#1e1f22;color:#bcbec4&quot;&gt;&lt;pre style=&quot;font-family:&#39;JetBrains Mono&#39;,monospace;font-size:12.0pt;&quot;&gt;_init_table_RelatedTable&lt;/pre&gt;&lt;/div&gt;" style="rounded=1;whiteSpace=wrap;html=1;" parent="1" vertex="1">
          <mxGeometry x="10" y="495" width="210" height="60" as="geometry" />
        </mxCell>
        <mxCell id="eJx14qyZ2uoMX4utbZYr-10" style="edgeStyle=orthogonalEdgeStyle;rounded=0;orthogonalLoop=1;jettySize=auto;html=1;entryX=0;entryY=0.5;entryDx=0;entryDy=0;" parent="1" source="eJx14qyZ2uoMX4utbZYr-5" target="eJx14qyZ2uoMX4utbZYr-6" edge="1">
          <mxGeometry relative="1" as="geometry" />
        </mxCell>
        <mxCell id="eJx14qyZ2uoMX4utbZYr-11" style="edgeStyle=orthogonalEdgeStyle;rounded=0;orthogonalLoop=1;jettySize=auto;html=1;entryX=0;entryY=0.5;entryDx=0;entryDy=0;" parent="1" source="eJx14qyZ2uoMX4utbZYr-5" target="eJx14qyZ2uoMX4utbZYr-8" edge="1">
          <mxGeometry relative="1" as="geometry" />
        </mxCell>
        <mxCell id="eJx14qyZ2uoMX4utbZYr-5" value="&lt;div style=&quot;background-color:#1e1f22;color:#bcbec4&quot;&gt;&lt;pre style=&quot;font-family:&#39;JetBrains Mono&#39;,monospace;font-size:12.0pt;&quot;&gt;_init_table_RelatedTable&lt;/pre&gt;&lt;/div&gt;" style="rounded=1;whiteSpace=wrap;html=1;" parent="1" vertex="1">
          <mxGeometry x="1150" y="130" width="210" height="60" as="geometry" />
        </mxCell>
        <mxCell id="eJx14qyZ2uoMX4utbZYr-13" style="edgeStyle=orthogonalEdgeStyle;rounded=0;orthogonalLoop=1;jettySize=auto;html=1;entryX=0;entryY=0.5;entryDx=0;entryDy=0;" parent="1" source="eJx14qyZ2uoMX4utbZYr-6" target="eJx14qyZ2uoMX4utbZYr-12" edge="1">
          <mxGeometry relative="1" as="geometry" />
        </mxCell>
        <mxCell id="eJx14qyZ2uoMX4utbZYr-6" value="&lt;div style=&quot;background-color:#1e1f22;color:#bcbec4&quot;&gt;&lt;pre style=&quot;font-family:&#39;JetBrains Mono&#39;,monospace;font-size:12.0pt;&quot;&gt;_table_SheetPretreatment&lt;/pre&gt;&lt;/div&gt;" style="rounded=1;whiteSpace=wrap;html=1;" parent="1" vertex="1">
          <mxGeometry x="1530" y="20" width="215" height="60" as="geometry" />
        </mxCell>
        <mxCell id="eJx14qyZ2uoMX4utbZYr-30" style="edgeStyle=orthogonalEdgeStyle;rounded=0;orthogonalLoop=1;jettySize=auto;html=1;entryX=0;entryY=0.5;entryDx=0;entryDy=0;" parent="1" source="eJx14qyZ2uoMX4utbZYr-8" target="eJx14qyZ2uoMX4utbZYr-29" edge="1">
          <mxGeometry relative="1" as="geometry" />
        </mxCell>
        <mxCell id="eJx14qyZ2uoMX4utbZYr-8" value="&lt;div style=&quot;background-color:#1e1f22;color:#bcbec4&quot;&gt;&lt;pre style=&quot;font-family:&#39;JetBrains Mono&#39;,monospace;font-size:9.8pt;&quot;&gt;conv2tableLuaIndex.main&lt;/pre&gt;&lt;/div&gt;" style="rounded=1;whiteSpace=wrap;html=1;" parent="1" vertex="1">
          <mxGeometry x="1530" y="210" width="180" height="60" as="geometry" />
        </mxCell>
        <mxCell id="eJx14qyZ2uoMX4utbZYr-12" value="&lt;div style=&quot;background-color:#1e1f22;color:#bcbec4&quot;&gt;&lt;pre style=&quot;font-family:&#39;JetBrains Mono&#39;,monospace;font-size:12.0pt;&quot;&gt;SheetPretreatmentModule.SheetPretreatment&lt;/pre&gt;&lt;/div&gt;" style="rounded=1;whiteSpace=wrap;html=1;" parent="1" vertex="1">
          <mxGeometry x="1940" y="20" width="350" height="60" as="geometry" />
        </mxCell>
        <mxCell id="eJx14qyZ2uoMX4utbZYr-17" value="生成每行的索引" style="text;html=1;align=center;verticalAlign=middle;resizable=0;points=[];autosize=1;strokeColor=none;fillColor=none;" parent="1" vertex="1">
          <mxGeometry x="2055" y="78" width="110" height="30" as="geometry" />
        </mxCell>
        <mxCell id="_njpeNoxGZ5RL7biQajy-7" style="edgeStyle=orthogonalEdgeStyle;rounded=0;orthogonalLoop=1;jettySize=auto;html=1;" parent="1" source="eJx14qyZ2uoMX4utbZYr-18" target="_njpeNoxGZ5RL7biQajy-6" edge="1">
          <mxGeometry relative="1" as="geometry" />
        </mxCell>
        <mxCell id="eJx14qyZ2uoMX4utbZYr-18" value="&lt;div style=&quot;background-color:#1e1f22;color:#bcbec4&quot;&gt;&lt;pre style=&quot;font-family:&#39;JetBrains Mono&#39;,monospace;font-size:12.0pt;&quot;&gt;convert&lt;/pre&gt;&lt;/div&gt;" style="rounded=1;whiteSpace=wrap;html=1;" parent="1" vertex="1">
          <mxGeometry x="55" y="770" width="120" height="60" as="geometry" />
        </mxCell>
        <mxCell id="eJx14qyZ2uoMX4utbZYr-22" value="生成每行的索引&lt;div&gt;并进行拆表&lt;/div&gt;" style="text;html=1;align=center;verticalAlign=middle;resizable=0;points=[];autosize=1;strokeColor=none;fillColor=none;" parent="1" vertex="1">
          <mxGeometry x="245" y="505" width="110" height="40" as="geometry" />
        </mxCell>
        <mxCell id="eJx14qyZ2uoMX4utbZYr-24" value="&lt;div style=&quot;background-color:#1e1f22;color:#bcbec4&quot;&gt;&lt;pre style=&quot;font-family:&#39;JetBrains Mono&#39;,monospace;font-size:12.0pt;&quot;&gt;&lt;span style=&quot;color:#56a8f5;&quot;&gt;_table_EndExtraProcess&lt;/span&gt;&lt;/pre&gt;&lt;/div&gt;" style="rounded=1;whiteSpace=wrap;html=1;" parent="1" vertex="1">
          <mxGeometry x="20" y="1050" width="190" height="60" as="geometry" />
        </mxCell>
        <mxCell id="eJx14qyZ2uoMX4utbZYr-26" value="生成&lt;span style=&quot;font-size: 14px; text-align: left; white-space: pre-wrap; background-color: transparent; color: light-dark(rgb(0, 0, 0), rgb(255, 255, 255));&quot;&gt;LocalKeyDefine.lua、LocalKeyDefine.ldata&lt;/span&gt;" style="text;html=1;align=center;verticalAlign=middle;resizable=0;points=[];autosize=1;strokeColor=none;fillColor=none;" parent="1" vertex="1">
          <mxGeometry x="160" y="1065" width="310" height="30" as="geometry" />
        </mxCell>
        <mxCell id="eJx14qyZ2uoMX4utbZYr-28" value="拆表" style="text;html=1;align=center;verticalAlign=middle;resizable=0;points=[];autosize=1;strokeColor=none;fillColor=none;" parent="1" vertex="1">
          <mxGeometry x="1654" y="285" width="50" height="30" as="geometry" />
        </mxCell>
        <mxCell id="eJx14qyZ2uoMX4utbZYr-29" value="&lt;div style=&quot;background-color:#1e1f22;color:#bcbec4&quot;&gt;&lt;pre style=&quot;font-family:&#39;JetBrains Mono&#39;,monospace;font-size:12.0pt;&quot;&gt;_initMainTableData&lt;/pre&gt;&lt;/div&gt;" style="rounded=1;whiteSpace=wrap;html=1;" parent="1" vertex="1">
          <mxGeometry x="1860" y="210" width="170" height="60" as="geometry" />
        </mxCell>
        <mxCell id="_njpeNoxGZ5RL7biQajy-5" style="edgeStyle=orthogonalEdgeStyle;rounded=0;orthogonalLoop=1;jettySize=auto;html=1;entryX=0.5;entryY=0;entryDx=0;entryDy=0;" parent="1" source="_njpeNoxGZ5RL7biQajy-1" target="eJx14qyZ2uoMX4utbZYr-18" edge="1">
          <mxGeometry relative="1" as="geometry" />
        </mxCell>
        <mxCell id="_njpeNoxGZ5RL7biQajy-1" value="&lt;div style=&quot;background-color:#1e1f22;color:#bcbec4&quot;&gt;&lt;pre style=&quot;font-family:&#39;JetBrains Mono&#39;,monospace;font-size:9.8pt;&quot;&gt;topological_sort&lt;/pre&gt;&lt;/div&gt;" style="rounded=1;whiteSpace=wrap;html=1;" parent="1" vertex="1">
          <mxGeometry x="55" y="615" width="120" height="60" as="geometry" />
        </mxCell>
        <mxCell id="_njpeNoxGZ5RL7biQajy-3" value="生成依赖关系" style="text;html=1;align=center;verticalAlign=middle;resizable=0;points=[];autosize=1;strokeColor=none;fillColor=none;" parent="1" vertex="1">
          <mxGeometry x="215" y="630" width="100" height="30" as="geometry" />
        </mxCell>
        <mxCell id="_njpeNoxGZ5RL7biQajy-8" style="edgeStyle=orthogonalEdgeStyle;rounded=0;orthogonalLoop=1;jettySize=auto;html=1;" parent="1" source="_njpeNoxGZ5RL7biQajy-6" target="eJx14qyZ2uoMX4utbZYr-24" edge="1">
          <mxGeometry relative="1" as="geometry" />
        </mxCell>
        <mxCell id="_njpeNoxGZ5RL7biQajy-11" style="edgeStyle=orthogonalEdgeStyle;rounded=0;orthogonalLoop=1;jettySize=auto;html=1;" parent="1" source="_njpeNoxGZ5RL7biQajy-6" target="_njpeNoxGZ5RL7biQajy-10" edge="1">
          <mxGeometry relative="1" as="geometry" />
        </mxCell>
        <mxCell id="_njpeNoxGZ5RL7biQajy-6" value="&lt;div style=&quot;background-color:#1e1f22;color:#bcbec4&quot;&gt;&lt;pre style=&quot;font-family:&#39;JetBrains Mono&#39;,monospace;font-size:9.8pt;&quot;&gt;is_client&lt;/pre&gt;&lt;/div&gt;" style="rhombus;whiteSpace=wrap;html=1;" parent="1" vertex="1">
          <mxGeometry x="75" y="900" width="80" height="80" as="geometry" />
        </mxCell>
        <mxCell id="_njpeNoxGZ5RL7biQajy-9" value="true" style="text;html=1;align=center;verticalAlign=middle;resizable=0;points=[];autosize=1;strokeColor=none;fillColor=none;" parent="1" vertex="1">
          <mxGeometry x="110" y="998" width="40" height="30" as="geometry" />
        </mxCell>
        <mxCell id="_njpeNoxGZ5RL7biQajy-10" value="&lt;div style=&quot;background-color:#1e1f22;color:#bcbec4&quot;&gt;&lt;pre style=&quot;font-family:&#39;JetBrains Mono&#39;,monospace;font-size:9.8pt;&quot;&gt;check_all_pbin_files_from_map&lt;/pre&gt;&lt;/div&gt;" style="rounded=1;whiteSpace=wrap;html=1;" parent="1" vertex="1">
          <mxGeometry x="305" y="910" width="230" height="60" as="geometry" />
        </mxCell>
        <mxCell id="_njpeNoxGZ5RL7biQajy-12" value="false" style="text;html=1;align=center;verticalAlign=middle;resizable=0;points=[];autosize=1;strokeColor=none;fillColor=none;" parent="1" vertex="1">
          <mxGeometry x="205" y="910" width="50" height="30" as="geometry" />
        </mxCell>
        <mxCell id="_njpeNoxGZ5RL7biQajy-15" style="edgeStyle=orthogonalEdgeStyle;rounded=0;orthogonalLoop=1;jettySize=auto;html=1;entryX=0;entryY=0.5;entryDx=0;entryDy=0;exitX=1;exitY=0.5;exitDx=0;exitDy=0;fontFamily=Helvetica;fontColor=#000000;labelBackgroundColor=none;" parent="1" source="_njpeNoxGZ5RL7biQajy-17" target="_njpeNoxGZ5RL7biQajy-14" edge="1">
          <mxGeometry relative="1" as="geometry">
            <mxPoint x="1577" y="735" as="sourcePoint" />
          </mxGeometry>
        </mxCell>
        <mxCell id="HzeIFlUvHCIBDFWtZQH6-19" style="edgeStyle=orthogonalEdgeStyle;rounded=0;orthogonalLoop=1;jettySize=auto;html=1;entryX=0;entryY=0.5;entryDx=0;entryDy=0;fontColor=#000000;labelBackgroundColor=none;fontFamily=Helvetica;" edge="1" parent="1" source="_njpeNoxGZ5RL7biQajy-14" target="HzeIFlUvHCIBDFWtZQH6-18">
          <mxGeometry relative="1" as="geometry" />
        </mxCell>
        <mxCell id="HzeIFlUvHCIBDFWtZQH6-24" style="edgeStyle=orthogonalEdgeStyle;rounded=0;orthogonalLoop=1;jettySize=auto;html=1;entryX=0;entryY=0.5;entryDx=0;entryDy=0;fontColor=#000000;labelBackgroundColor=none;fontFamily=Helvetica;" edge="1" parent="1" source="_njpeNoxGZ5RL7biQajy-14" target="HzeIFlUvHCIBDFWtZQH6-21">
          <mxGeometry relative="1" as="geometry" />
        </mxCell>
        <mxCell id="HzeIFlUvHCIBDFWtZQH6-26" style="edgeStyle=orthogonalEdgeStyle;rounded=0;orthogonalLoop=1;jettySize=auto;html=1;entryX=0;entryY=0.5;entryDx=0;entryDy=0;fontColor=#000000;labelBackgroundColor=none;fontFamily=Helvetica;" edge="1" parent="1" source="_njpeNoxGZ5RL7biQajy-14" target="HzeIFlUvHCIBDFWtZQH6-25">
          <mxGeometry relative="1" as="geometry" />
        </mxCell>
        <mxCell id="HzeIFlUvHCIBDFWtZQH6-28" style="edgeStyle=orthogonalEdgeStyle;rounded=0;orthogonalLoop=1;jettySize=auto;html=1;entryX=0;entryY=0.5;entryDx=0;entryDy=0;fontColor=#000000;labelBackgroundColor=none;fontFamily=Helvetica;" edge="1" parent="1" source="_njpeNoxGZ5RL7biQajy-14" target="HzeIFlUvHCIBDFWtZQH6-27">
          <mxGeometry relative="1" as="geometry" />
        </mxCell>
        <mxCell id="_njpeNoxGZ5RL7biQajy-14" value="&lt;div style=&quot;&quot;&gt;&lt;div style=&quot;font-size: 9.8pt;&quot;&gt;conv2tableLuaIndex.getExcelListToMainTabelDataLis&lt;/div&gt;&lt;/div&gt;" style="rounded=1;whiteSpace=wrap;html=1;fontFamily=Helvetica;fontColor=#000000;labelBackgroundColor=none;" parent="1" vertex="1">
          <mxGeometry x="1687" y="585" width="359" height="60" as="geometry" />
        </mxCell>
        <mxCell id="_njpeNoxGZ5RL7biQajy-16" value="&lt;div style=&quot;&quot;&gt;&lt;div style=&quot;font-size: 9.8pt;&quot;&gt;&lt;span style=&quot;&quot;&gt;根据文件数据获取所有需要拆分的&lt;/span&gt;&lt;span style=&quot;&quot;&gt;table&lt;/span&gt;&lt;span style=&quot;&quot;&gt;的&lt;/span&gt;&lt;span style=&quot;&quot;&gt;pbin&lt;/span&gt;&lt;span style=&quot;&quot;&gt;数据&lt;/span&gt;&lt;/div&gt;&lt;/div&gt;" style="text;html=1;align=center;verticalAlign=middle;resizable=0;points=[];autosize=1;strokeColor=none;fillColor=none;fontFamily=Helvetica;fontColor=#000000;labelBackgroundColor=none;" parent="1" vertex="1">
          <mxGeometry x="1705" y="545" width="310" height="30" as="geometry" />
        </mxCell>
        <mxCell id="_njpeNoxGZ5RL7biQajy-19" style="edgeStyle=orthogonalEdgeStyle;rounded=0;orthogonalLoop=1;jettySize=auto;html=1;entryX=0;entryY=0.5;entryDx=0;entryDy=0;fontFamily=Helvetica;fontColor=#000000;labelBackgroundColor=none;" parent="1" source="_njpeNoxGZ5RL7biQajy-17" target="_njpeNoxGZ5RL7biQajy-18" edge="1">
          <mxGeometry relative="1" as="geometry" />
        </mxCell>
        <mxCell id="_njpeNoxGZ5RL7biQajy-17" value="&lt;div style=&quot;&quot;&gt;&lt;div style=&quot;font-size: 12pt;&quot;&gt;&lt;span style=&quot;&quot;&gt;_table_EndExtraProcess&lt;/span&gt;&lt;/div&gt;&lt;/div&gt;" style="rounded=1;whiteSpace=wrap;html=1;fontFamily=Helvetica;fontColor=#000000;labelBackgroundColor=none;" parent="1" vertex="1">
          <mxGeometry x="1377" y="705" width="190" height="60" as="geometry" />
        </mxCell>
        <mxCell id="_njpeNoxGZ5RL7biQajy-18" value="&lt;div style=&quot;&quot;&gt;&lt;div style=&quot;font-size: 9.8pt;&quot;&gt;EndExtraProcessModule.EndExtraProcess&lt;/div&gt;&lt;/div&gt;" style="rounded=1;whiteSpace=wrap;html=1;fontFamily=Helvetica;fontColor=#000000;labelBackgroundColor=none;" parent="1" vertex="1">
          <mxGeometry x="1689" y="910" width="290" height="60" as="geometry" />
        </mxCell>
        <mxCell id="_njpeNoxGZ5RL7biQajy-20" value="只对&lt;span style=&quot;font-size: 9.8pt;&quot;&gt;table_TextEntryData进行操作&lt;/span&gt;&lt;div&gt;&lt;span style=&quot;font-size: 9.8pt;&quot;&gt;生成LocalKeyDefine文件&lt;/span&gt;&lt;/div&gt;" style="text;html=1;align=center;verticalAlign=middle;resizable=0;points=[];autosize=1;strokeColor=none;fillColor=none;fontFamily=Helvetica;fontColor=#000000;labelBackgroundColor=none;" parent="1" vertex="1">
          <mxGeometry x="1687" y="973" width="220" height="40" as="geometry" />
        </mxCell>
        <mxCell id="HzeIFlUvHCIBDFWtZQH6-44" style="edgeStyle=orthogonalEdgeStyle;rounded=0;orthogonalLoop=1;jettySize=auto;html=1;entryX=0;entryY=0.5;entryDx=0;entryDy=0;fontFamily=Helvetica;fontColor=default;labelBackgroundColor=default;" edge="1" parent="1" source="HzeIFlUvHCIBDFWtZQH6-1" target="HzeIFlUvHCIBDFWtZQH6-29">
          <mxGeometry relative="1" as="geometry" />
        </mxCell>
        <mxCell id="HzeIFlUvHCIBDFWtZQH6-1" value="&lt;div style=&quot;&quot;&gt;&lt;div style=&quot;font-size: 9.8pt;&quot;&gt;&lt;div style=&quot;font-size: 12pt;&quot;&gt;convert&lt;/div&gt;&lt;/div&gt;&lt;/div&gt;" style="rounded=1;whiteSpace=wrap;html=1;fontFamily=Helvetica;fontColor=default;labelBackgroundColor=default;" vertex="1" parent="1">
          <mxGeometry x="1215" y="1400" width="120" height="60" as="geometry" />
        </mxCell>
        <mxCell id="HzeIFlUvHCIBDFWtZQH6-2" value="提取&lt;span style=&quot;font-size: 12pt;&quot;&gt;res_convert_map和info中所有的sheet/pbin信息&lt;/span&gt;" style="text;html=1;align=center;verticalAlign=middle;resizable=0;points=[];autosize=1;strokeColor=none;fillColor=none;fontColor=#000000;labelBackgroundColor=none;fontFamily=Helvetica;" vertex="1" parent="1">
          <mxGeometry x="1665" y="-355" width="390" height="30" as="geometry" />
        </mxCell>
        <mxCell id="HzeIFlUvHCIBDFWtZQH6-3" value="&lt;div style=&quot;&quot;&gt;&lt;div style=&quot;font-size: 9.8pt;&quot;&gt;getRelatedTableList&lt;/div&gt;&lt;/div&gt;" style="rounded=1;whiteSpace=wrap;html=1;fontColor=#000000;labelBackgroundColor=none;fontFamily=Helvetica;" vertex="1" parent="1">
          <mxGeometry x="1241" y="-600" width="137" height="60" as="geometry" />
        </mxCell>
        <mxCell id="HzeIFlUvHCIBDFWtZQH6-6" value="&lt;div style=&quot;&quot;&gt;&lt;div style=&quot;font-size: 12pt;&quot;&gt;convUtils.getExcelConvertRule&lt;/div&gt;&lt;/div&gt;" style="rounded=1;whiteSpace=wrap;html=1;fontColor=#000000;labelBackgroundColor=none;fontFamily=Helvetica;" vertex="1" parent="1">
          <mxGeometry x="1241" y="-490" width="250" height="60" as="geometry" />
        </mxCell>
        <mxCell id="HzeIFlUvHCIBDFWtZQH6-9" value="根据excel的path获取并生成sheet信息" style="text;html=1;align=center;verticalAlign=middle;resizable=0;points=[];autosize=1;strokeColor=none;fillColor=none;fontColor=#000000;labelBackgroundColor=none;fontFamily=Helvetica;" vertex="1" parent="1">
          <mxGeometry x="1510" y="-475" width="220" height="30" as="geometry" />
        </mxCell>
        <mxCell id="HzeIFlUvHCIBDFWtZQH6-13" value="将现在info中有的excel的sheet信息以及这些sheet依赖的其它的sheet信息存入info" style="rounded=1;whiteSpace=wrap;html=1;fontColor=#000000;labelBackgroundColor=none;fontFamily=Helvetica;" vertex="1" parent="1">
          <mxGeometry x="1241" y="-250" width="329" height="60" as="geometry" />
        </mxCell>
        <mxCell id="HzeIFlUvHCIBDFWtZQH6-15" value="生成&lt;span style=&quot;font-size: 14px; text-align: left; white-space: pre-wrap;&quot;&gt;LocalKeyDefine.lua、LocalKeyDefine.ldata&lt;/span&gt;" style="text;html=1;align=center;verticalAlign=middle;resizable=0;points=[];autosize=1;strokeColor=none;fillColor=none;fontFamily=Helvetica;fontColor=#000000;labelBackgroundColor=none;" vertex="1" parent="1">
          <mxGeometry x="1322" y="790" width="310" height="30" as="geometry" />
        </mxCell>
        <mxCell id="HzeIFlUvHCIBDFWtZQH6-16" value="生成excel中有哪些sheet信息&lt;div&gt;以pbin为单位，&lt;/div&gt;&lt;div&gt;与上一次的结果（&lt;span style=&quot;font-size: 14px; text-align: left; white-space: pre-wrap;&quot;&gt;res_convert_map.txt）&lt;/span&gt;&lt;span style=&quot;&quot;&gt;做对比&lt;/span&gt;&lt;/div&gt;&lt;div&gt;&lt;span style=&quot;&quot;&gt;将新增的sheet增加进相应的excel的value&lt;/span&gt;&lt;/div&gt;&lt;div&gt;&lt;span style=&quot;&quot;&gt;其中如果info中相应的excel有value就不加&lt;/span&gt;&lt;/div&gt;&lt;div&gt;&lt;span style=&quot;&quot;&gt;如果是&lt;/span&gt;&lt;span style=&quot;font-size: 14px; text-align: left; white-space: pre-wrap;&quot;&gt;RelatedTable.json中记载&lt;/span&gt;&lt;/div&gt;&lt;div&gt;&lt;span style=&quot;font-size: 14px; text-align: left; white-space: pre-wrap;&quot;&gt;的有table见依赖关系的就直接加入&lt;/span&gt;&lt;/div&gt;" style="text;html=1;align=center;verticalAlign=middle;resizable=0;points=[];autosize=1;strokeColor=none;fillColor=none;fontColor=#000000;labelBackgroundColor=none;fontFamily=Helvetica;" vertex="1" parent="1">
          <mxGeometry x="920" y="-460" width="300" height="120" as="geometry" />
        </mxCell>
        <mxCell id="HzeIFlUvHCIBDFWtZQH6-17" value="&lt;div&gt;导表信息预处理&lt;/div&gt;给info信息赋值" style="text;html=1;align=center;verticalAlign=middle;resizable=0;points=[];autosize=1;strokeColor=none;fillColor=none;" vertex="1" parent="1">
          <mxGeometry x="190" y="340" width="110" height="40" as="geometry" />
        </mxCell>
        <mxCell id="HzeIFlUvHCIBDFWtZQH6-18" value="&lt;div style=&quot;&quot;&gt;&lt;div style=&quot;font-size: 12pt;&quot;&gt;getAutoBreakList&lt;/div&gt;&lt;/div&gt;" style="rounded=1;whiteSpace=wrap;html=1;fontColor=#000000;labelBackgroundColor=none;fontFamily=Helvetica;" vertex="1" parent="1">
          <mxGeometry x="2190" y="435" width="170" height="60" as="geometry" />
        </mxCell>
        <mxCell id="HzeIFlUvHCIBDFWtZQH6-20" value="获取需要按行分隔的table" style="text;html=1;align=center;verticalAlign=middle;resizable=0;points=[];autosize=1;strokeColor=none;fillColor=none;fontColor=#000000;labelBackgroundColor=none;fontFamily=Helvetica;" vertex="1" parent="1">
          <mxGeometry x="2200" y="398" width="160" height="30" as="geometry" />
        </mxCell>
        <mxCell id="HzeIFlUvHCIBDFWtZQH6-21" value="&lt;div style=&quot;&quot;&gt;&lt;div style=&quot;font-size: 12pt;&quot;&gt;get_res_convert_map_by_excelList&lt;/div&gt;&lt;/div&gt;" style="rounded=1;whiteSpace=wrap;html=1;fontColor=#000000;labelBackgroundColor=none;fontFamily=Helvetica;" vertex="1" parent="1">
          <mxGeometry x="2190" y="677" width="270" height="60" as="geometry" />
        </mxCell>
        <mxCell id="HzeIFlUvHCIBDFWtZQH6-23" value="获取所有的pbin信息" style="text;html=1;align=center;verticalAlign=middle;resizable=0;points=[];autosize=1;strokeColor=none;fillColor=none;fontColor=#000000;labelBackgroundColor=none;fontFamily=Helvetica;" vertex="1" parent="1">
          <mxGeometry x="2245" y="640" width="130" height="30" as="geometry" />
        </mxCell>
        <mxCell id="HzeIFlUvHCIBDFWtZQH6-25" value="获取info中所有按行分割的table的pbin" style="rounded=1;whiteSpace=wrap;html=1;fontColor=#000000;labelBackgroundColor=none;fontFamily=Helvetica;" vertex="1" parent="1">
          <mxGeometry x="2190" y="545" width="120" height="60" as="geometry" />
        </mxCell>
        <mxCell id="HzeIFlUvHCIBDFWtZQH6-27" value="获取info中按行分割的table中没有的pbin信息" style="rounded=1;whiteSpace=wrap;html=1;fontColor=#000000;labelBackgroundColor=none;fontFamily=Helvetica;" vertex="1" parent="1">
          <mxGeometry x="2190" y="790" width="150" height="60" as="geometry" />
        </mxCell>
        <mxCell id="HzeIFlUvHCIBDFWtZQH6-32" style="edgeStyle=orthogonalEdgeStyle;rounded=0;orthogonalLoop=1;jettySize=auto;html=1;entryX=0;entryY=0.5;entryDx=0;entryDy=0;fontFamily=Helvetica;fontColor=default;labelBackgroundColor=default;" edge="1" parent="1" source="HzeIFlUvHCIBDFWtZQH6-29" target="HzeIFlUvHCIBDFWtZQH6-30">
          <mxGeometry relative="1" as="geometry" />
        </mxCell>
        <mxCell id="HzeIFlUvHCIBDFWtZQH6-40" style="edgeStyle=orthogonalEdgeStyle;rounded=0;orthogonalLoop=1;jettySize=auto;html=1;entryX=0;entryY=0.5;entryDx=0;entryDy=0;fontFamily=Helvetica;fontColor=default;labelBackgroundColor=default;" edge="1" parent="1" source="HzeIFlUvHCIBDFWtZQH6-29" target="HzeIFlUvHCIBDFWtZQH6-39">
          <mxGeometry relative="1" as="geometry" />
        </mxCell>
        <mxCell id="HzeIFlUvHCIBDFWtZQH6-29" value="&lt;div style=&quot;&quot;&gt;&lt;div style=&quot;font-size: 12pt;&quot;&gt;&lt;span style=&quot;&quot;&gt;copy_pbin&lt;/span&gt;&lt;/div&gt;&lt;/div&gt;" style="rounded=1;whiteSpace=wrap;html=1;fontFamily=Helvetica;fontColor=default;labelBackgroundColor=default;" vertex="1" parent="1">
          <mxGeometry x="1485" y="1400" width="120" height="60" as="geometry" />
        </mxCell>
        <mxCell id="HzeIFlUvHCIBDFWtZQH6-36" style="edgeStyle=orthogonalEdgeStyle;rounded=0;orthogonalLoop=1;jettySize=auto;html=1;fontFamily=Helvetica;fontColor=default;labelBackgroundColor=default;" edge="1" parent="1" source="HzeIFlUvHCIBDFWtZQH6-30" target="HzeIFlUvHCIBDFWtZQH6-35">
          <mxGeometry relative="1" as="geometry" />
        </mxCell>
        <mxCell id="HzeIFlUvHCIBDFWtZQH6-30" value="&lt;div style=&quot;&quot;&gt;&lt;div style=&quot;font-size: 12pt;&quot;&gt;copy_pbin_fun&lt;/div&gt;&lt;/div&gt;" style="rounded=1;whiteSpace=wrap;html=1;fontFamily=Helvetica;fontColor=default;labelBackgroundColor=default;" vertex="1" parent="1">
          <mxGeometry x="1775" y="1400" width="120" height="60" as="geometry" />
        </mxCell>
        <mxCell id="HzeIFlUvHCIBDFWtZQH6-31" value="将pbin文件从&lt;span style=&quot;color: rgb(106, 171, 115); font-family: &amp;quot;JetBrains Mono&amp;quot;, monospace; font-size: 12pt; background-color: rgb(30, 31, 34);&quot;&gt;client/data目录下&lt;/span&gt;&lt;div&gt;&lt;span style=&quot;color: rgb(106, 171, 115); font-family: &amp;quot;JetBrains Mono&amp;quot;, monospace; font-size: 12pt; background-color: rgb(30, 31, 34);&quot;&gt;移到&lt;/span&gt;&lt;span style=&quot;color: rgb(106, 171, 115); font-family: &amp;quot;JetBrains Mono&amp;quot;, monospace; font-size: 12pt; background-color: rgb(30, 31, 34);&quot;&gt;clientTools/Export/pbin目录下&lt;/span&gt;&lt;/div&gt;&lt;div&gt;&lt;span style=&quot;color: rgb(106, 171, 115); font-family: &amp;quot;JetBrains Mono&amp;quot;, monospace; font-size: 12pt; background-color: rgb(30, 31, 34);&quot;&gt;或者&lt;/span&gt;&lt;span style=&quot;background-color: rgb(30, 31, 34); color: rgb(106, 171, 115); font-family: &amp;quot;JetBrains Mono&amp;quot;, monospace; font-size: 16px;&quot;&gt;&lt;span style=&quot;font-size: 12pt; background-color: light-dark(rgb(30, 31, 34), rgb(209, 210, 212));&quot;&gt;/clientTools/&lt;/span&gt;&lt;span style=&quot;background-color: light-dark(rgb(30, 31, 34), rgb(209, 210, 212)); color: light-dark(rgb(106, 171, 115), rgb(65, 121, 73)); font-size: 12pt;&quot;&gt;Feature/&lt;/span&gt;&lt;span style=&quot;background-color: light-dark(rgb(30, 31, 34), rgb(209, 210, 212)); color: light-dark(rgb(106, 171, 115), rgb(65, 121, 73));&quot;&gt;目录下（副玩法）&lt;/span&gt;&lt;br&gt;&lt;/span&gt;&lt;/div&gt;" style="text;html=1;align=center;verticalAlign=middle;resizable=0;points=[];autosize=1;strokeColor=none;fillColor=none;" vertex="1" parent="1">
          <mxGeometry x="245" y="765" width="350" height="70" as="geometry" />
        </mxCell>
        <mxCell id="HzeIFlUvHCIBDFWtZQH6-33" value="获取每个sheet对应的所有pbin&lt;div&gt;（包含拆表的）&lt;/div&gt;" style="text;html=1;align=center;verticalAlign=middle;resizable=0;points=[];autosize=1;strokeColor=none;fillColor=none;fontFamily=Helvetica;fontColor=default;labelBackgroundColor=default;" vertex="1" parent="1">
          <mxGeometry x="1465" y="1363" width="180" height="40" as="geometry" />
        </mxCell>
        <mxCell id="HzeIFlUvHCIBDFWtZQH6-35" value="&lt;div style=&quot;&quot;&gt;&lt;div style=&quot;font-size: 12pt;&quot;&gt;copy_file_customdir&lt;/div&gt;&lt;/div&gt;" style="rounded=1;whiteSpace=wrap;html=1;fontFamily=Helvetica;fontColor=default;labelBackgroundColor=default;" vertex="1" parent="1">
          <mxGeometry x="2056" y="1400" width="179" height="60" as="geometry" />
        </mxCell>
        <mxCell id="HzeIFlUvHCIBDFWtZQH6-37" value="区分主玩法和副玩法移动的目录&lt;div&gt;并且副玩法还需要移动到为了CDN热更还需要再&lt;/div&gt;&lt;div&gt;拷贝一份&lt;/div&gt;" style="text;html=1;align=center;verticalAlign=middle;resizable=0;points=[];autosize=1;strokeColor=none;fillColor=none;fontFamily=Helvetica;fontColor=default;labelBackgroundColor=default;" vertex="1" parent="1">
          <mxGeometry x="1685" y="1333" width="280" height="60" as="geometry" />
        </mxCell>
        <mxCell id="HzeIFlUvHCIBDFWtZQH6-38" value="将原本的文件内容进行加密&lt;div&gt;并存储到目标目录下&lt;/div&gt;" style="text;html=1;align=center;verticalAlign=middle;resizable=0;points=[];autosize=1;strokeColor=none;fillColor=none;fontFamily=Helvetica;fontColor=default;labelBackgroundColor=default;" vertex="1" parent="1">
          <mxGeometry x="2050" y="1333" width="170" height="40" as="geometry" />
        </mxCell>
        <mxCell id="HzeIFlUvHCIBDFWtZQH6-42" style="edgeStyle=orthogonalEdgeStyle;rounded=0;orthogonalLoop=1;jettySize=auto;html=1;entryX=0;entryY=0.5;entryDx=0;entryDy=0;fontFamily=Helvetica;fontColor=default;labelBackgroundColor=default;" edge="1" parent="1" source="HzeIFlUvHCIBDFWtZQH6-39" target="HzeIFlUvHCIBDFWtZQH6-41">
          <mxGeometry relative="1" as="geometry" />
        </mxCell>
        <mxCell id="HzeIFlUvHCIBDFWtZQH6-39" value="&lt;div style=&quot;&quot;&gt;&lt;div style=&quot;font-size: 12pt;&quot;&gt;&lt;span style=&quot;&quot;&gt;&#39;convertTrans&#39; &lt;/span&gt;== convAction&lt;/div&gt;&lt;/div&gt;" style="rhombus;whiteSpace=wrap;html=1;fontFamily=Helvetica;fontColor=default;labelBackgroundColor=default;" vertex="1" parent="1">
          <mxGeometry x="1722" y="1239" width="310" height="80" as="geometry" />
        </mxCell>
        <mxCell id="HzeIFlUvHCIBDFWtZQH6-41" value="&lt;div style=&quot;&quot;&gt;&lt;div style=&quot;font-size: 12pt;&quot;&gt;trans_sheet&lt;/div&gt;&lt;/div&gt;" style="rounded=1;whiteSpace=wrap;html=1;fontFamily=Helvetica;fontColor=default;labelBackgroundColor=default;" vertex="1" parent="1">
          <mxGeometry x="2184" y="1249" width="120" height="60" as="geometry" />
        </mxCell>
        <mxCell id="HzeIFlUvHCIBDFWtZQH6-43" value="生成方式为convertTrans&lt;div&gt;文本表全为convert&lt;/div&gt;" style="text;html=1;align=center;verticalAlign=middle;resizable=0;points=[];autosize=1;strokeColor=none;fillColor=none;fontFamily=Helvetica;fontColor=default;labelBackgroundColor=default;" vertex="1" parent="1">
          <mxGeometry x="1880" y="1200" width="150" height="40" as="geometry" />
        </mxCell>
        <mxCell id="HzeIFlUvHCIBDFWtZQH6-45" value="如果传入&lt;span style=&quot;font-size: 12pt;&quot;&gt;sheetname_list&lt;/span&gt;&lt;div&gt;&lt;span style=&quot;font-size: 12pt;&quot;&gt;就需要判断现在对应的excel中&lt;/span&gt;&lt;/div&gt;&lt;div&gt;&lt;span style=&quot;font-size: 12pt;&quot;&gt;还有没有&lt;/span&gt;&lt;span style=&quot;font-size: 12pt;&quot;&gt;sheetname_list中的sheet&lt;/span&gt;&lt;/div&gt;&lt;div&gt;&lt;span style=&quot;font-size: 12pt;&quot;&gt;防止对以及删掉的sheet进行操作&lt;/span&gt;&lt;/div&gt;" style="text;html=1;align=center;verticalAlign=middle;resizable=0;points=[];autosize=1;strokeColor=none;fillColor=none;fontFamily=Helvetica;fontColor=default;labelBackgroundColor=default;" vertex="1" parent="1">
          <mxGeometry x="1140" y="1458" width="270" height="90" as="geometry" />
        </mxCell>
        <mxCell id="HzeIFlUvHCIBDFWtZQH6-50" style="edgeStyle=orthogonalEdgeStyle;rounded=0;orthogonalLoop=1;jettySize=auto;html=1;" edge="1" parent="1" source="HzeIFlUvHCIBDFWtZQH6-47" target="HzeIFlUvHCIBDFWtZQH6-48">
          <mxGeometry relative="1" as="geometry" />
        </mxCell>
        <mxCell id="HzeIFlUvHCIBDFWtZQH6-51" style="edgeStyle=orthogonalEdgeStyle;rounded=0;orthogonalLoop=1;jettySize=auto;html=1;entryX=0;entryY=0.5;entryDx=0;entryDy=0;" edge="1" parent="1" source="HzeIFlUvHCIBDFWtZQH6-47" target="HzeIFlUvHCIBDFWtZQH6-49">
          <mxGeometry relative="1" as="geometry" />
        </mxCell>
        <mxCell id="HzeIFlUvHCIBDFWtZQH6-47" value="&lt;div style=&quot;background-color:#1e1f22;color:#bcbec4&quot;&gt;&lt;pre style=&quot;font-family:&#39;JetBrains Mono&#39;,monospace;font-size:12.0pt;&quot;&gt;&lt;span style=&quot;color:#56a8f5;&quot;&gt;pre_handle&lt;/span&gt;&lt;/pre&gt;&lt;/div&gt;" style="rounded=1;whiteSpace=wrap;html=1;" vertex="1" parent="1">
          <mxGeometry x="970" y="1720" width="120" height="60" as="geometry" />
        </mxCell>
        <mxCell id="HzeIFlUvHCIBDFWtZQH6-53" style="edgeStyle=orthogonalEdgeStyle;rounded=0;orthogonalLoop=1;jettySize=auto;html=1;" edge="1" parent="1" source="HzeIFlUvHCIBDFWtZQH6-48" target="HzeIFlUvHCIBDFWtZQH6-52">
          <mxGeometry relative="1" as="geometry" />
        </mxCell>
        <mxCell id="HzeIFlUvHCIBDFWtZQH6-48" value="&lt;div style=&quot;background-color:#1e1f22;color:#bcbec4&quot;&gt;&lt;pre style=&quot;font-family:&#39;JetBrains Mono&#39;,monospace;font-size:12.0pt;&quot;&gt;pre_convert&lt;/pre&gt;&lt;/div&gt;" style="rounded=1;whiteSpace=wrap;html=1;" vertex="1" parent="1">
          <mxGeometry x="1191" y="1720" width="120" height="60" as="geometry" />
        </mxCell>
        <mxCell id="HzeIFlUvHCIBDFWtZQH6-49" value="&lt;div style=&quot;background-color:#1e1f22;color:#bcbec4&quot;&gt;&lt;pre style=&quot;font-family:&#39;JetBrains Mono&#39;,monospace;font-size:12.0pt;&quot;&gt;pre_add_mod&lt;/pre&gt;&lt;/div&gt;" style="rounded=1;whiteSpace=wrap;html=1;" vertex="1" parent="1">
          <mxGeometry x="1191" y="1880" width="120" height="60" as="geometry" />
        </mxCell>
        <mxCell id="HzeIFlUvHCIBDFWtZQH6-55" style="edgeStyle=orthogonalEdgeStyle;rounded=0;orthogonalLoop=1;jettySize=auto;html=1;" edge="1" parent="1" source="HzeIFlUvHCIBDFWtZQH6-52" target="HzeIFlUvHCIBDFWtZQH6-54">
          <mxGeometry relative="1" as="geometry" />
        </mxCell>
        <mxCell id="HzeIFlUvHCIBDFWtZQH6-52" value="&lt;div style=&quot;background-color:#1e1f22;color:#bcbec4&quot;&gt;&lt;pre style=&quot;font-family:&#39;JetBrains Mono&#39;,monospace;font-size:12.0pt;&quot;&gt;pre_convert_sheet&lt;/pre&gt;&lt;/div&gt;" style="rounded=1;whiteSpace=wrap;html=1;" vertex="1" parent="1">
          <mxGeometry x="1465" y="1720" width="155" height="60" as="geometry" />
        </mxCell>
        <mxCell id="HzeIFlUvHCIBDFWtZQH6-58" style="edgeStyle=orthogonalEdgeStyle;rounded=0;orthogonalLoop=1;jettySize=auto;html=1;" edge="1" parent="1" source="HzeIFlUvHCIBDFWtZQH6-54" target="HzeIFlUvHCIBDFWtZQH6-57">
          <mxGeometry relative="1" as="geometry" />
        </mxCell>
        <mxCell id="HzeIFlUvHCIBDFWtZQH6-61" style="edgeStyle=orthogonalEdgeStyle;rounded=0;orthogonalLoop=1;jettySize=auto;html=1;entryX=0;entryY=0.5;entryDx=0;entryDy=0;" edge="1" parent="1" source="HzeIFlUvHCIBDFWtZQH6-54" target="HzeIFlUvHCIBDFWtZQH6-60">
          <mxGeometry relative="1" as="geometry" />
        </mxCell>
        <mxCell id="HzeIFlUvHCIBDFWtZQH6-54" value="&lt;div style=&quot;background-color:#1e1f22;color:#bcbec4&quot;&gt;&lt;pre style=&quot;font-family:&#39;JetBrains Mono&#39;,monospace;font-size:12.0pt;&quot;&gt;genCsPb.compile_module_with_import&lt;/pre&gt;&lt;/div&gt;" style="rounded=1;whiteSpace=wrap;html=1;" vertex="1" parent="1">
          <mxGeometry x="1762" y="1720" width="293" height="60" as="geometry" />
        </mxCell>
        <mxCell id="HzeIFlUvHCIBDFWtZQH6-57" value="&lt;div style=&quot;background-color:#1e1f22;color:#bcbec4&quot;&gt;&lt;pre style=&quot;font-family:&#39;JetBrains Mono&#39;,monospace;font-size:12.0pt;&quot;&gt;&lt;span style=&quot;color:#56a8f5;&quot;&gt;compile_file_notag&lt;/span&gt;&lt;/pre&gt;&lt;/div&gt;" style="rounded=1;whiteSpace=wrap;html=1;" vertex="1" parent="1">
          <mxGeometry x="2205" y="1720" width="165" height="60" as="geometry" />
        </mxCell>
        <mxCell id="HzeIFlUvHCIBDFWtZQH6-59" value="读取原proto的信息，并生成新的proto" style="text;html=1;align=center;verticalAlign=middle;resizable=0;points=[];autosize=1;strokeColor=none;fillColor=none;" vertex="1" parent="1">
          <mxGeometry x="2184" y="1600" width="220" height="30" as="geometry" />
        </mxCell>
        <mxCell id="HzeIFlUvHCIBDFWtZQH6-60" value="&lt;div style=&quot;background-color:#1e1f22;color:#bcbec4&quot;&gt;&lt;pre style=&quot;font-family:&#39;JetBrains Mono&#39;,monospace;font-size:12.0pt;&quot;&gt;&lt;span style=&quot;color:#56a8f5;&quot;&gt;writeFileWithCheck&lt;/span&gt;&lt;/pre&gt;&lt;/div&gt;" style="rounded=1;whiteSpace=wrap;html=1;" vertex="1" parent="1">
          <mxGeometry x="2205" y="1840" width="160" height="60" as="geometry" />
        </mxCell>
        <mxCell id="HzeIFlUvHCIBDFWtZQH6-62" value="将新的proto信息写入client/proto或者server/proto目录" style="text;html=1;align=center;verticalAlign=middle;resizable=0;points=[];autosize=1;strokeColor=none;fillColor=none;" vertex="1" parent="1">
          <mxGeometry x="2165" y="1810" width="310" height="30" as="geometry" />
        </mxCell>
        <mxCell id="HzeIFlUvHCIBDFWtZQH6-63" value="分别传入&lt;span style=&quot;color: rgb(106, 171, 115); font-family: &amp;quot;JetBrains Mono&amp;quot;, monospace; font-size: 12pt; background-color: rgb(30, 31, 34);&quot;&gt;@noCli和&lt;/span&gt;&lt;span style=&quot;color: rgb(106, 171, 115); font-family: &amp;quot;JetBrains Mono&amp;quot;, monospace; font-size: 12pt; background-color: rgb(30, 31, 34);&quot;&gt;@noSvr&lt;/span&gt;&lt;div&gt;&lt;font face=&quot;JetBrains Mono, monospace&quot; color=&quot;#6aab73&quot;&gt;&lt;span style=&quot;font-size: 16px; background-color: rgb(30, 31, 34);&quot;&gt;即不进行客户端导表和&lt;/span&gt;&lt;/font&gt;&lt;/div&gt;&lt;div&gt;&lt;font face=&quot;JetBrains Mono, monospace&quot; color=&quot;#6aab73&quot;&gt;&lt;span style=&quot;font-size: 16px; background-color: rgb(30, 31, 34);&quot;&gt;不进行服务器导表&lt;/span&gt;&lt;/font&gt;&lt;/div&gt;" style="text;html=1;align=center;verticalAlign=middle;resizable=0;points=[];autosize=1;strokeColor=none;fillColor=none;" vertex="1" parent="1">
          <mxGeometry x="2190" y="1640" width="180" height="70" as="geometry" />
        </mxCell>
        <mxCell id="HzeIFlUvHCIBDFWtZQH6-65" value="将proto做了处理后写入相应的文件夹&lt;div&gt;并且将此次导表不导的表存入&lt;span style=&quot;font-family: &amp;quot;JetBrains Mono&amp;quot;, monospace; font-size: 12pt; background-color: rgb(30, 31, 34); color: rgb(188, 190, 196);&quot;&gt;Pre_Exclusion_List&lt;/span&gt;&lt;/div&gt;" style="text;html=1;align=center;verticalAlign=middle;resizable=0;points=[];autosize=1;strokeColor=none;fillColor=none;" vertex="1" parent="1">
          <mxGeometry x="1730" y="1658" width="320" height="50" as="geometry" />
        </mxCell>
      </root>
    </mxGraphModel>
  </diagram>
</mxfile>
